<svg width="156" height="48" viewBox="0 0 156 48" fill="none" xmlns="http://www.w3.org/2000/svg">
<g clip-path="url(#clip0_33453_6326)">
<path d="M75.7918 43.5339L72.7054 43.4945C71.7729 43.4945 71.6546 43.3369 71.937 42.391C72.377 40.9066 72.5937 39.3631 72.968 37.8722C73.2767 36.8344 73.3292 35.7375 73.1125 34.6735C72.1734 35.3303 72.4098 36.841 72.3901 37.8262C72.3901 38.3254 72.2391 38.6932 71.6415 38.6603C71.0242 38.483 70.9848 38.0035 71.1621 37.4846C71.2475 36.8016 71.2869 36.1053 71.2738 35.4157C71.4511 34.5093 71.8648 33.662 72.4755 32.9658C72.7645 32.5979 73.0731 32.2498 73.3621 31.8952C73.5 31.6981 73.6773 31.5273 73.8808 31.4025C74.0844 31.2777 74.3143 31.1924 74.5507 31.1595C74.7871 31.1267 75.0301 31.1398 75.2599 31.2055C75.4898 31.2712 75.7065 31.3828 75.8969 31.5339C76.2318 31.8163 76.4814 32.1907 76.6193 32.6045C76.8491 33.1234 77.0921 33.6226 77.276 34.1546C77.6503 35.3828 78.4121 36.46 79.4562 37.2088C79.7714 37.419 80.2048 37.7474 79.7911 38.2006C79.3774 38.6538 79.0359 38.2728 78.7207 38.0364C77.8539 37.3796 76.9214 36.8016 76.4288 35.7375C76.4682 35.8229 76.3697 36.125 76.3566 36.2301C76.35 36.4075 76.35 36.5848 76.3566 36.7621C76.3697 37.1103 76.4354 37.4518 76.5405 37.7802C76.9805 39.2318 77.2891 40.7162 77.4664 42.2203C77.624 43.4748 77.6174 43.4748 76.3763 43.4945C76.1662 43.4945 75.9823 43.5208 75.7918 43.5339Z" fill="#6BDC85"/>
<path d="M82.2453 43.2313V46.7124C82.2453 47.0079 82.4227 47.494 81.8381 47.4677C81.2535 47.4414 81.4309 46.9882 81.4309 46.673V40.1836C81.4309 39.6253 81.4309 39.1065 80.715 38.962C80.6624 38.962 80.6033 38.9357 80.5573 38.9028C80.5113 38.87 80.4719 38.8306 80.4457 38.7781C80.4194 38.7255 80.4062 38.673 80.4062 38.6138C80.4062 38.5547 80.4194 38.5022 80.4522 38.4496C80.4916 38.3511 80.5705 38.2657 80.6624 38.2132C80.7609 38.1606 80.8726 38.1475 80.9777 38.1738C81.3389 38.2066 81.6805 38.3774 81.9169 38.6598C82.1534 38.9357 82.2716 39.2969 82.2453 39.6582V43.2247V43.2313Z" fill="#6BDC85"/>
<path d="M76.9801 45.0442C76.9801 45.5697 76.9473 46.1017 76.9341 46.6337C76.921 47.1657 76.724 47.5138 76.1 47.5073C75.476 47.5007 75.4432 47.0869 75.4432 46.6928C75.4038 45.8849 75.4432 45.0639 75.3906 44.256C75.3906 43.9539 75.4694 43.7766 75.7716 43.7306C76.8225 43.5926 77.0983 44.1444 76.9801 45.0442Z" fill="#6BDC85"/>
<path d="M61.6213 38.2527V38.0885C61.5885 36.9325 61.7526 35.7831 62.1007 34.6862C62.5407 33.609 63.1645 32.6172 63.946 31.7568C64.1627 31.54 64.432 31.3758 64.7209 31.2839C65.0164 31.1919 65.3251 31.1722 65.6337 31.2248C65.9489 31.2642 66.2444 31.389 66.494 31.586C66.7435 31.7831 66.934 32.0392 67.0456 32.3348C67.4856 33.274 67.768 34.3052 68.2868 35.2051C68.7399 35.9998 69.3637 36.6698 70.1255 37.1755C70.4867 37.4251 70.9004 37.7338 70.5195 38.2264C70.1387 38.719 69.6855 38.43 69.2981 38.1476C68.8384 37.8389 68.3984 37.5039 67.9847 37.1361C67.5907 36.742 67.2492 36.3019 66.9602 35.8225C66.8683 36.5121 66.8683 37.2149 66.9602 37.9046C66.9996 38.6205 67.0784 39.3364 67.1572 40.0524C67.3608 41.4514 67.4725 42.8635 67.5053 44.2822V46.5351C67.5053 47.1262 67.2689 47.5335 66.645 47.5335C66.0212 47.5335 65.7979 47.146 65.7913 46.5482V43.8356C65.7913 43.3758 65.7651 42.9161 65.7125 42.4563C65.7125 42.0753 65.6403 41.6944 65.5089 41.3397C65.371 41.0836 65.2725 41.1558 65.2331 41.3791C65.1937 41.6024 65.2331 41.898 65.1806 42.1476C65.1215 42.6336 65.0361 43.1197 64.9376 43.5991C64.734 44.5581 64.4714 45.5039 64.2809 46.4629C64.2021 46.811 64.1627 47.2248 63.7753 47.4284C63.6439 47.5269 63.4798 47.5794 63.3156 47.586C63.1514 47.586 62.9872 47.5466 62.8428 47.4612C62.7048 47.3758 62.5932 47.2445 62.521 47.0934C62.4553 46.9423 62.429 46.7716 62.4619 46.6074C62.5735 45.6024 62.7968 44.6041 63.1186 43.6451C63.3353 42.8635 63.46 42.0622 63.4995 41.2543C63.4995 40.7354 63.6505 40.1903 63.7096 39.6648C63.7687 39.1394 63.8278 38.5285 63.8606 37.9571C63.8935 37.3857 63.9197 36.8405 63.9132 36.2757C63.9526 35.7108 63.9197 35.1394 63.8147 34.5811C63.0266 34.9292 63.0595 35.8947 63.0201 36.6172C62.9807 37.3397 63.2171 39.0606 62.0219 38.9949C61.9037 38.9029 61.8117 38.7913 61.7395 38.6665C61.6673 38.5351 61.6279 38.3972 61.6213 38.2461V38.2527Z" fill="#6BDC85"/>
<path d="M73.4166 43.8159C74.1917 43.7108 74.415 43.8488 74.1523 44.5581C73.8895 45.2675 73.8173 46.0688 73.6202 46.811C73.502 47.2445 73.2984 47.6583 72.7073 47.5335C72.1161 47.4087 72.1293 46.9489 72.1949 46.5089C72.3197 45.7076 72.4642 44.9128 72.635 44.1246C72.7532 43.5795 73.2393 43.8882 73.4166 43.8159Z" fill="#6BDC85"/>
<path d="M65.6239 30.9953C66.5369 30.9953 67.2791 30.2531 67.2791 29.3401C67.2791 28.4271 66.5369 27.6849 65.6239 27.6849C64.7109 27.6849 63.9688 28.4271 63.9688 29.3401C63.9688 30.2531 64.7109 30.9953 65.6239 30.9953Z" fill="#6BDC85"/>
<path d="M76.7476 29.3138C76.7476 29.5306 76.7016 29.7473 76.6228 29.9443C76.5374 30.148 76.4192 30.3253 76.2615 30.4829C76.1105 30.634 75.9266 30.7588 75.7229 30.8376C75.5193 30.923 75.3092 30.9624 75.0924 30.9624C74.6983 30.9624 74.3108 30.8179 74.0152 30.5617C73.7197 30.3056 73.516 29.9443 73.4569 29.5503C73.3124 29.5043 73.1942 29.4123 73.1154 29.281C73.0366 29.1562 72.9972 29.0051 73.0103 28.8606C72.9972 28.6964 73.0431 28.5256 73.1482 28.3943C73.2533 28.2629 73.3978 28.1775 73.562 28.1512C73.6606 28.1512 73.7525 28.1841 73.8313 28.2432C73.989 28.0593 74.1794 27.9082 74.3962 27.8097C74.6129 27.7112 74.8494 27.6586 75.0924 27.6586C75.5325 27.6586 75.9528 27.836 76.2615 28.1447C76.5702 28.4534 76.7476 28.8737 76.7476 29.3138Z" fill="#6BDC85"/>
<path d="M20.1286 47.5727L18.0995 41.3724H7.16547L4.99837 47.5727H0.5L12.4387 17.7731H13.5026L24.581 47.5727H20.1286ZM12.7802 25.4972L8.22931 38.443H16.9568L12.7802 25.4972Z" fill="#179649"/>
<path d="M27.6641 39.1265V6.04279H31.4795V38.2464C31.4007 39.5403 31.7421 40.8211 32.4711 41.964C32.7206 42.3712 33.0949 42.7127 33.5546 42.9492C34.0209 43.1856 34.5528 43.317 35.0979 43.3236V47.9804C30.1398 47.9804 27.6641 45.0313 27.6641 39.1331V39.1265Z" fill="#179649"/>
<path d="M52.7299 47.5731V34.069C52.8087 32.7028 52.3885 31.3563 51.5479 30.2726C51.1276 29.8062 50.6154 29.445 50.0375 29.202C49.4596 28.9655 48.8357 28.8604 48.2119 28.8933C47.2334 28.913 46.2746 29.1888 45.434 29.7011C44.5935 30.1675 43.8645 30.8177 43.2998 31.5993V47.5731H39.4844V17.2676H43.2998V28.4335C43.9171 27.5599 44.7708 26.8768 45.7558 26.463C46.8525 25.9442 48.0477 25.6749 49.256 25.6749C50.2608 25.6223 51.2589 25.7997 52.1914 26.1872C53.1174 26.5747 53.9448 27.1658 54.6081 27.9212C55.8952 29.4187 56.5388 31.468 56.5388 34.0624V47.5665H52.7299V47.5731Z" fill="#179649"/>
<path d="M104.623 47.573V33.3792H91.778V47.5861H87.7656V18.174H91.778V29.9572H104.623V18.174H108.635V47.573H104.623Z" fill="#179649"/>
<path d="M117.975 26.0824V39.7901C117.975 43.107 119.414 44.7687 122.29 44.7622C123.524 44.7687 124.726 44.3943 125.738 43.685C126.677 43.0873 127.399 42.2071 127.806 41.1759V26.0692H131.622V47.5602H127.826V44.5914C127.215 45.6029 126.315 46.4108 125.245 46.9099C124.096 47.5733 122.789 47.9346 121.462 47.9608C119.111 47.9608 117.306 47.304 116.058 45.9379C114.81 44.5717 114.18 42.6538 114.18 40.1776V26.0824H117.975Z" fill="#179649"/>
<path d="M140.063 46.0295L138.717 48H136.812V17.2676H140.628V27.665C141.18 27.041 141.876 26.5681 142.664 26.2988C143.59 25.8982 144.588 25.688 145.599 25.6814C146.945 25.6355 148.278 25.885 149.513 26.4105C150.748 26.9359 151.857 27.7307 152.757 28.7291C154.616 30.8571 155.594 33.6092 155.496 36.4335C155.496 40.0197 154.576 42.8374 152.744 44.8933C150.912 46.9491 148.429 47.9737 145.304 47.9737C144.279 47.9737 143.261 47.7767 142.302 47.4023C141.462 47.1133 140.7 46.6469 140.063 46.0295ZM140.628 30.5747V42.9819C140.628 43.1921 141.101 43.5468 142.053 44.0328C142.716 44.4269 143.452 44.6765 144.22 44.7619C146.847 44.7619 148.672 44.1445 149.795 42.8965C150.918 41.6486 151.47 39.5665 151.47 36.6634C151.47 34.2266 150.813 32.3284 149.5 30.9622C148.81 30.2726 147.983 29.7274 147.07 29.3793C146.157 29.0246 145.185 28.8735 144.207 28.9195C143.517 28.9786 142.848 29.1823 142.237 29.5172C141.633 29.7537 141.088 30.1149 140.628 30.5747Z" fill="#179649"/>
<mask id="mask0_33453_6326" style="mask-type:luminance" maskUnits="userSpaceOnUse" x="17" y="6" width="11" height="12">
<path d="M22.8031 6.78087L17.4297 11.8339L22.4827 17.2072L27.856 12.1542L22.8031 6.78087Z" fill="white"/>
</mask>
<g mask="url(#mask0_33453_6326)">
<path fill-rule="evenodd" clip-rule="evenodd" d="M25.1808 10.0823V10.0561V10.0495C25.1743 10.0101 25.1545 9.97726 25.1348 9.94441C25.1086 9.91157 25.0757 9.89187 25.0429 9.87873H25.0363L25.01 9.8656C24.8787 9.81962 24.7473 9.77364 24.6094 9.7408C24.2613 9.64228 23.9066 9.5766 23.5454 9.55033C22.6915 9.47808 21.588 9.5766 20.6751 10.3254C20.1562 10.7523 19.8278 11.3697 19.7621 12.0331C19.6964 12.703 19.9 13.373 20.327 13.8919C20.7539 14.4108 21.3713 14.7392 22.0347 14.8048C22.7046 14.8705 23.3746 14.6669 23.8935 14.24C24.8064 13.4912 25.1217 12.4272 25.2202 11.5799C25.2596 11.2186 25.2662 10.8574 25.2399 10.4961C25.2268 10.3582 25.2137 10.2203 25.194 10.0823H25.1808ZM22.9871 11.6981C22.8294 11.5076 22.6061 11.3894 22.3631 11.3631C22.1201 11.3369 21.877 11.4157 21.6866 11.5667C21.4961 11.7244 21.3779 11.9477 21.3516 12.1907C21.3253 12.4337 21.4041 12.6768 21.5552 12.8672C21.7128 13.0577 21.9362 13.1759 22.1792 13.2022C22.4222 13.2285 22.6652 13.1497 22.8557 12.9986C23.0462 12.841 23.1644 12.6176 23.1907 12.3746C23.2169 12.1316 23.1381 11.8886 22.9871 11.6981Z" fill="#179649"/>
</g>
<mask id="mask1_33453_6326" style="mask-type:luminance" maskUnits="userSpaceOnUse" x="17" y="2" width="9" height="10">
<path d="M19.7777 2.65766L17.4062 8.76849L23.5163 11.1396L25.8877 5.02881L19.7777 2.65766Z" fill="white"/>
</mask>
<g mask="url(#mask1_33453_6326)">
<path fill-rule="evenodd" clip-rule="evenodd" d="M24.351 7.73701L24.3641 7.72387C24.3641 7.72387 24.4035 7.65819 24.4101 7.62535C24.4167 7.59251 24.4167 7.55967 24.4101 7.52026V7.48742C24.3773 7.36919 24.3379 7.25097 24.2919 7.13274C24.1802 6.83061 24.0357 6.54161 23.8715 6.26575C23.4774 5.6155 22.8206 4.87987 21.8026 4.62371C21.2246 4.47921 20.6071 4.5646 20.0948 4.86673C19.5825 5.16887 19.2081 5.66805 19.0636 6.24604C18.9126 6.82404 19.0045 7.44144 19.3067 7.95376C19.6088 8.46607 20.108 8.84046 20.686 8.98496C21.704 9.24768 22.6301 8.91271 23.287 8.53176C23.5628 8.36755 23.8255 8.18365 24.0751 7.97346C24.1671 7.89465 24.259 7.80926 24.351 7.72387V7.73701ZM22.039 7.01452C22.0916 6.80433 22.0587 6.58102 21.9471 6.39711C21.8354 6.2132 21.6581 6.07527 21.4479 6.02273C21.2377 5.97018 21.0144 6.00302 20.8305 6.11468C20.6466 6.22634 20.5086 6.40368 20.4561 6.61386C20.4035 6.82404 20.4364 7.04736 20.548 7.23126C20.6597 7.41517 20.837 7.5531 21.0472 7.60565C21.2574 7.65819 21.4807 7.62535 21.6646 7.51369C21.8485 7.40204 21.9865 7.2247 22.039 7.01452Z" fill="#33B34C"/>
</g>
<mask id="mask2_33453_6326" style="mask-type:luminance" maskUnits="userSpaceOnUse" x="20" y="-1" width="8" height="8">
<path d="M24.3348 -0.0019181L20.4766 3.03967L23.5182 6.89791L27.3764 3.85632L24.3348 -0.0019181Z" fill="white"/>
</mask>
<g mask="url(#mask2_33453_6326)">
<path fill-rule="evenodd" clip-rule="evenodd" d="M25.1563 5.17578H25.1694C25.1957 5.17578 25.222 5.16265 25.2417 5.14294C25.2614 5.12981 25.2811 5.10353 25.2877 5.08383V5.06413C25.3205 4.97874 25.3534 4.88679 25.3796 4.8014C25.4453 4.57152 25.4979 4.33506 25.5241 4.09204C25.5832 3.52718 25.5241 2.79155 25.0447 2.16757C24.7688 1.81289 24.3616 1.58958 23.9149 1.53703C23.4683 1.48449 23.0217 1.60928 22.6736 1.88514C22.3254 2.16101 22.0956 2.56823 22.043 3.01486C21.9905 3.4615 22.1153 3.90813 22.3911 4.25624C22.8772 4.87365 23.58 5.09697 24.1448 5.17578C24.3813 5.20863 24.6243 5.21519 24.8673 5.20206C24.9593 5.20206 25.0512 5.18892 25.1432 5.17578H25.1563ZM24.1054 3.69138C24.2302 3.59286 24.3156 3.44179 24.3353 3.28416C24.355 3.11995 24.309 2.96232 24.2105 2.83096C24.112 2.70616 23.9609 2.62078 23.8033 2.60107C23.6391 2.58137 23.4814 2.62734 23.3501 2.72587C23.2253 2.82439 23.1399 2.97546 23.1202 3.13309C23.1005 3.29729 23.1465 3.45493 23.245 3.58629C23.3435 3.71109 23.4946 3.79647 23.6522 3.81618C23.8164 3.83588 23.974 3.78991 24.1054 3.69138Z" fill="#7CC245"/>
</g>
</g>
<defs>
<clipPath id="clip0_33453_6326">
<rect width="155" height="48" fill="white" transform="translate(0.5)"/>
</clipPath>
</defs>
</svg>
